<svg width="512" height="512" viewBox="0 0 512 512" fill="none" xmlns="http://www.w3.org/2000/svg">
<path d="M237.569 258.488L224.86 310.014C240.549 313.954 288.939 329.668 296.09 300.602C303.566 270.288 253.258 262.448 237.569 258.488ZM254.905 188.169L243.383 234.901C256.448 238.195 296.723 251.627 303.249 225.189C310.047 197.609 267.97 191.462 254.905 188.169ZM256.001 42.6667C213.808 42.6667 172.562 55.1784 137.48 78.6198C102.397 102.061 75.0538 135.379 58.9071 174.361C42.7604 213.342 38.5357 256.237 46.7672 297.619C54.9987 339.002 75.3168 377.014 105.152 406.849C134.987 436.685 173 457.003 214.382 465.234C255.765 473.466 298.659 469.241 337.641 453.094C376.622 436.948 409.94 409.604 433.382 374.522C456.823 339.439 469.335 298.193 469.335 256C469.335 227.985 463.817 200.244 453.096 174.361C442.375 148.478 426.661 124.96 406.851 105.151C387.041 85.3407 363.523 69.6267 337.641 58.9057C311.758 48.1847 284.017 42.6667 256.001 42.6667ZM348.972 225.608C348.524 233.793 345.383 241.6 340.039 247.816C334.694 254.031 327.445 258.306 319.42 259.976C324.695 262.123 329.467 265.34 333.437 269.423C337.407 273.507 340.488 278.368 342.486 283.701C344.484 289.034 345.355 294.723 345.045 300.41C344.735 306.097 343.251 311.657 340.686 316.742C328.195 352.841 298.518 355.888 259.053 348.334L249.474 387.155L226.331 381.321L235.784 343.022C229.786 341.515 223.655 339.915 217.34 338.182L207.854 376.66L184.737 370.827L194.316 331.934C188.909 330.534 183.419 329.047 177.816 327.627L147.698 320.034L159.188 293.241C159.188 293.241 176.24 297.828 176.01 297.488C177.071 297.827 178.189 297.951 179.299 297.855C180.409 297.758 181.488 297.442 182.475 296.925C183.462 296.407 184.336 295.699 185.047 294.842C185.758 293.984 186.291 292.994 186.616 291.928L212.588 186.589C212.921 183.361 211.98 180.131 209.966 177.588C207.951 175.045 205.022 173.389 201.804 172.975C202.167 172.729 184.993 168.749 184.993 168.749L191.151 143.749L223.068 151.809L223.041 151.93C227.839 153.135 232.783 154.282 237.82 155.443L247.306 117.003L270.436 122.836L261.143 160.522C267.352 161.956 273.601 163.402 279.686 164.936L288.913 127.496L312.058 133.329L302.579 171.783C331.799 181.962 353.169 197.223 348.972 225.608Z" fill="white"/>
</svg>
