<svg width="12" height="9" viewBox="0 0 12 9" fill="none" xmlns="http://www.w3.org/2000/svg">
<path d="M5.99921 9C5.74392 8.99871 5.49212 8.94061 5.26208 8.82991C5.03203 8.71922 4.82951 8.5587 4.66921 8.36L0.459215 3.26C0.213209 2.95297 0.0584007 2.583 0.0124318 2.19227C-0.0335371 1.80153 0.0311821 1.40574 0.199215 1.05C0.335494 0.740826 0.557888 0.477413 0.839834 0.291223C1.12178 0.105032 1.45136 0.00393305 1.78921 0H10.2092C10.5471 0.00393305 10.8767 0.105032 11.1586 0.291223C11.4405 0.477413 11.6629 0.740826 11.7992 1.05C11.9672 1.40574 12.032 1.80153 11.986 2.19227C11.94 2.583 11.7852 2.95297 11.5392 3.26L7.32921 8.36C7.16892 8.5587 6.9664 8.71922 6.73635 8.82991C6.50631 8.94061 6.25451 8.99871 5.99921 9Z" fill="white"/>
</svg>
